<?xml version="1.0" standalone="no"?>
<!DOCTYPE svg PUBLIC "-//W3C//DTD SVG 20010904//EN"
 "http://www.w3.org/TR/2001/REC-SVG-20010904/DTD/svg10.dtd">
<svg version="1.0" xmlns="http://www.w3.org/2000/svg"
 width="304.000000pt" height="233.000000pt" viewBox="0 0 304.000000 233.000000"
 preserveAspectRatio="xMidYMid meet">

<g transform="translate(0.000000,233.000000) scale(0.100000,-0.100000)"
fill="#000000" stroke="none">
<path d="M1049 1310 c-77 -41 -138 -145 -124 -211 8 -34 48 -69 81 -69 62 0
124 48 160 125 30 62 31 110 5 125 -28 15 -36 13 -70 -16 -33 -27 -56 -92 -46
-124 12 -36 25 -21 25 29 0 38 5 54 25 75 21 23 28 26 40 16 22 -18 18 -49
-11 -108 -59 -118 -161 -92 -124 31 8 29 29 59 67 95 48 45 52 52 31 52 -12
-1 -39 -10 -59 -20z"/>
<path d="M1853 1302 c-17 -9 -45 -29 -62 -45 -25 -22 -35 -25 -51 -17 -29 16
-49 12 -75 -15 -32 -31 -31 -50 0 -77 l25 -22 -27 -28 c-29 -30 -63 -37 -63
-14 0 8 5 18 10 21 13 8 13 42 0 50 -18 11 -50 -6 -56 -30 -22 -87 95 -112
160 -34 14 16 30 29 36 29 6 0 9 8 6 18 -3 9 -1 24 4 31 13 22 24 -30 16 -79
-5 -32 -3 -40 10 -40 33 0 55 23 90 92 20 40 47 89 61 111 13 21 22 45 19 53
-7 19 -64 17 -103 -4z m51 -14 c-5 -7 -29 -45 -55 -85 l-46 -71 -12 36 c-11
37 -11 38 38 85 45 43 93 66 75 35z m-165 -67 c11 -7 9 -15 -10 -40 -26 -36
-44 -39 -59 -11 -22 41 27 78 69 51z"/>
<path d="M2092 1243 c-48 -79 -107 -151 -117 -142 -3 4 12 43 34 87 39 78 44
112 16 112 -7 0 -25 -21 -40 -47 -16 -27 -43 -67 -61 -90 -36 -44 -44 -64 -18
-43 13 12 14 10 3 -13 -29 -63 20 -76 81 -21 40 37 41 37 30 9 -13 -34 -1 -50
32 -42 29 8 78 50 78 67 0 9 -5 8 -18 -3 -34 -31 -32 -17 8 63 44 87 47 102
26 119 -11 9 -21 -2 -54 -56z"/>
<path d="M1479 1260 c-49 -26 -109 -90 -109 -116 0 -22 -26 -52 -36 -41 -3 3
4 23 15 46 12 22 21 45 21 51 0 19 -38 10 -69 -16 l-31 -26 0 25 c0 45 -26 38
-69 -19 -36 -49 -44 -73 -13 -42 17 17 15 -4 -3 -28 -8 -10 -15 -25 -15 -31 0
-27 30 -11 73 37 25 28 48 50 51 50 3 0 -2 -16 -10 -35 -20 -49 -18 -65 9 -65
14 0 39 16 62 40 21 22 48 40 60 40 18 0 20 -5 17 -36 -4 -33 -2 -35 19 -32
17 2 27 12 34 36 5 17 14 32 21 32 12 0 44 32 44 43 0 4 -12 4 -26 1 -25 -6
-26 -6 -14 17 7 13 21 36 31 51 11 14 19 29 19 32 0 12 -46 4 -81 -14z m11
-26 c0 -17 -43 -74 -56 -74 -21 0 -17 15 12 49 24 29 44 40 44 25z"/>
</g>
</svg>
